<svg width="24" height="24" viewBox="0 0 24 24" fill="none" xmlns="http://www.w3.org/2000/svg">
<path fill-rule="evenodd" clip-rule="evenodd" d="M2.00854 9.76621C2.00854 5.48184 5.48171 2.00867 9.76609 2.00867C14.0505 2.00867 17.5236 5.48184 17.5236 9.76621C17.5236 14.0506 14.0505 17.5237 9.76609 17.5237C5.48171 17.5237 2.00854 14.0506 2.00854 9.76621ZM9.76609 0.00866699C4.37714 0.00866699 0.00854492 4.37727 0.00854492 9.76621C0.00854492 15.1551 4.37714 19.5237 9.76609 19.5237C12.1003 19.5237 14.2432 18.7041 15.9224 17.3369L22.5932 24.0077L24.0075 22.5935L17.3367 15.9227C18.7039 14.2434 19.5236 12.1005 19.5236 9.76621C19.5236 4.37727 15.155 0.00866699 9.76609 0.00866699Z" fill="white"/>
</svg>
